<svg xmlns="http://www.w3.org/2000/svg" viewBox="0 0 512 512" fill="white">
  <rect width="512" height="512" fill="#3E88A5"/>
  <g fill="white">
    <!-- Left building windows -->
    <path d="M96 160h96v32H96v-32zm0 64h96v32H96v-32zm0 64h96v32H96v-32zm0 64h96v32H96v-32z" />
    <!-- Left building structure -->
    <path d="M64 128c0-17.67 14.33-32 32-32h128c17.67 0 32 14.33 32 32v352H64V128z" />
    <!-- Right building windows -->
    <path d="M320 64h96v32h-96V64zm0 64h96v32h-96v-32zm0 64h96v32h-96v-32zm0 64h96v32h-96v-32zm0 64h96v32h-96v-32zm0 64h96v32h-96v-32z" />
    <!-- Right building structure -->
    <path d="M288 32c0-17.67 14.33-32 32-32h128c17.67 0 32 14.33 32 32v448H288V32z" />
    <!-- Center building windows -->
    <path d="M128 256h64v32h-64v-32zm0 64h64v32h-64v-32zm0 64h64v32h-64v-32z" />
  </g>
</svg>
